<svg width="229" height="33" viewBox="0 0 229 33" fill="none" xmlns="http://www.w3.org/2000/svg">
<path d="M209.503 29.4C207.956 29.4 207.183 28.6666 207.183 27.2C207.183 26.24 207.41 25.2133 207.863 24.12C208.343 23 208.983 21.92 209.783 20.88C210.583 19.8133 211.476 18.8533 212.463 18C213.45 17.12 214.463 16.4266 215.503 15.92C216.543 15.3866 217.543 15.12 218.503 15.12C220.21 15.12 221.063 15.96 221.063 17.64C221.063 18.7333 220.796 19.28 220.263 19.28C219.783 19.28 219.543 19.0533 219.543 18.6C219.543 18.4133 219.583 18.2266 219.663 18.04C219.77 17.8266 219.823 17.6 219.823 17.36C219.823 16.6133 219.316 16.24 218.303 16.24C216.676 16.24 214.636 17.48 212.183 19.96C211.596 20.5733 211.023 21.2933 210.463 22.12C209.903 22.9466 209.436 23.7866 209.063 24.64C208.716 25.4666 208.543 26.2533 208.543 27C208.543 27.72 208.943 28.08 209.743 28.08C210.436 28.08 211.17 27.8666 211.943 27.44C212.743 27.0133 213.436 26.5733 214.023 26.12C215.196 25.24 216.396 24.04 217.623 22.52C217.81 22.3066 218.05 22.0266 218.343 21.68C218.636 21.3333 218.97 20.9466 219.343 20.52C219.476 20.3866 219.636 20.32 219.823 20.32C220.25 20.32 220.463 20.5333 220.463 20.96L218.943 23.24C217.93 24.7333 217.423 25.96 217.423 26.92C217.423 27.6133 217.756 27.96 218.423 27.96C218.983 27.96 219.596 27.8133 220.263 27.52C220.93 27.2266 221.476 26.9333 221.903 26.64C222.756 26.08 223.65 25.3866 224.583 24.56C225.516 23.7066 226.41 22.8533 227.263 22C227.37 21.8933 227.53 21.84 227.743 21.84C228.143 21.84 228.343 22 228.343 22.32C228.343 22.6133 228.156 22.9466 227.783 23.32C226.716 24.3866 225.756 25.3066 224.903 26.08C224.05 26.8266 223.236 27.44 222.463 27.92C221.956 28.2133 221.33 28.52 220.583 28.84C219.836 29.16 218.983 29.32 218.023 29.32C216.716 29.32 216.063 28.6266 216.063 27.24C216.063 26.7066 216.13 26.2666 216.263 25.92C213.836 28.24 211.583 29.4 209.503 29.4ZM219.743 12.88C219.663 12.88 219.556 12.84 219.423 12.76C218.596 12.0133 217.796 11.2933 217.023 10.6C216.276 9.90663 215.783 9.43996 215.543 9.19996C215.303 8.95996 215.183 8.75996 215.183 8.59996C215.183 8.46663 215.236 8.33329 215.343 8.19996C215.45 8.06663 215.57 7.98663 215.703 7.95996H215.783C215.916 7.95996 216.05 7.99996 216.183 8.07996C216.316 8.15996 216.436 8.25329 216.543 8.35996C216.89 8.70663 217.303 9.13329 217.783 9.63996C218.263 10.12 218.716 10.5866 219.143 11.04C219.596 11.4666 219.916 11.7866 220.103 12C220.21 12.1066 220.263 12.2266 220.263 12.36C220.263 12.4666 220.21 12.5866 220.103 12.72C219.996 12.8266 219.876 12.88 219.743 12.88Z" fill="white"/>
<path d="M193.531 30.0004C193.105 30.0004 192.891 29.8271 192.891 29.4804C192.891 29.3204 192.931 29.1604 193.011 29.0004C193.118 28.8404 193.198 28.7071 193.251 28.6004L196.891 21.2404C198.438 18.0937 199.211 16.3471 199.211 16.0004C199.211 15.6271 199.398 15.4404 199.771 15.4404C200.278 15.4404 200.531 15.6937 200.531 16.2004C200.531 16.4671 200.411 16.8937 200.171 17.4804C199.931 18.0671 199.625 18.7471 199.251 19.5204C198.611 20.9071 198.078 21.9737 197.651 22.7204C198.451 21.7871 199.265 20.9071 200.091 20.0804C200.918 19.2537 201.758 18.4671 202.611 17.7204C205.145 15.5071 207.091 14.4004 208.451 14.4004C209.385 14.4004 209.851 14.8404 209.851 15.7204C209.851 16.5737 209.571 17.0004 209.011 17.0004C208.745 17.0004 208.545 16.7737 208.411 16.3204C208.331 16.0004 208.145 15.8404 207.851 15.8404C207.398 15.8404 206.518 16.3337 205.211 17.3204C203.771 18.3871 202.318 19.6537 200.851 21.1204C199.411 22.5871 197.878 24.4537 196.251 26.7204L194.251 29.5204C194.145 29.6537 194.038 29.7604 193.931 29.8404C193.851 29.9471 193.718 30.0004 193.531 30.0004Z" fill="white"/>
<path d="M184.869 29.7199C183.749 29.7199 182.869 29.3332 182.229 28.5599C181.589 27.7866 181.269 26.8399 181.269 25.7199C181.269 23.7999 181.909 21.8265 183.189 19.7999C183.535 19.2399 183.935 18.6932 184.389 18.1599C184.842 17.5999 185.335 17.0665 185.869 16.5599C186.669 15.7866 187.509 15.1466 188.389 14.6399C189.269 14.1332 190.122 13.8799 190.949 13.8799C192.309 13.8799 192.989 14.5199 192.989 15.7999C192.989 17.3999 192.055 18.8532 190.189 20.1599C188.455 21.3332 186.749 21.9199 185.069 21.9199C184.775 21.9199 184.509 21.9065 184.269 21.8799C184.055 21.8265 183.855 21.7732 183.669 21.7199C183.402 22.2265 183.162 22.8799 182.949 23.6799C182.735 24.4799 182.629 25.1732 182.629 25.7599C182.629 27.5199 183.402 28.3999 184.949 28.3999C186.202 28.3999 187.389 28.1865 188.509 27.7599C189.629 27.3065 190.962 26.4666 192.509 25.2399C193.469 24.4932 194.189 23.8932 194.669 23.4399C195.149 22.9865 195.669 22.5066 196.229 21.9999C196.389 21.8932 196.535 21.8399 196.669 21.8399C196.802 21.8399 196.935 21.8799 197.069 21.9599C197.202 22.0399 197.269 22.1599 197.269 22.3199C197.269 22.6132 197.002 23.0265 196.469 23.5599C196.015 23.9865 195.535 24.4399 195.029 24.9199C194.522 25.3732 193.722 26.0132 192.629 26.8399C191.455 27.7466 190.175 28.4532 188.789 28.9599C187.402 29.4665 186.095 29.7199 184.869 29.7199ZM184.829 20.6399C185.682 20.6399 186.495 20.5066 187.269 20.2399C188.042 19.9732 188.775 19.5866 189.469 19.0799C191.015 17.9332 191.789 16.8532 191.789 15.8399C191.789 15.3865 191.509 15.1599 190.949 15.1599C189.882 15.1599 188.642 15.8132 187.229 17.1199C186.535 17.7599 185.962 18.3465 185.509 18.8799C185.082 19.3865 184.682 19.9465 184.309 20.5599C184.469 20.6132 184.642 20.6399 184.829 20.6399Z" fill="white"/>
<path d="M167.884 31.3603C167.137 31.3603 166.51 31.1336 166.004 30.6803C165.524 30.2269 165.284 29.6403 165.284 28.9203C165.284 28.6536 165.297 28.4803 165.324 28.4003C164.95 29.2536 164.604 29.6803 164.284 29.6803C163.857 29.6803 163.644 29.4269 163.644 28.9203L166.764 20.7603C167.244 19.4803 167.79 18.1603 168.404 16.8003C169.017 15.4136 169.63 14.0936 170.244 12.8403C170.884 11.5603 171.47 10.4136 172.004 9.40027C172.564 8.36027 173.017 7.53361 173.364 6.92027C174.217 5.45361 175.03 4.32027 175.804 3.52027C176.604 2.69361 177.23 2.28027 177.684 2.28027C178.19 2.28027 178.444 2.56027 178.444 3.12027C178.444 3.44027 178.284 3.60027 177.964 3.60027C177.27 3.60027 176.084 5.05361 174.404 7.96027C173.87 8.86694 173.364 9.77361 172.884 10.6803C172.43 11.5603 171.99 12.4403 171.564 13.3203C170.977 14.5736 170.364 15.9203 169.724 17.3603C169.084 18.8003 168.417 20.3203 167.724 21.9203C168.604 20.6403 169.577 19.4669 170.644 18.4003C171.577 17.4669 172.537 16.7203 173.524 16.1603C174.537 15.5736 175.537 15.2803 176.524 15.2803C177.617 15.2803 178.484 15.5069 179.124 15.9603C179.764 16.4136 180.084 17.2669 180.084 18.5203C180.084 19.5603 179.777 20.6669 179.164 21.8403C178.577 23.0136 177.804 24.1603 176.844 25.2803C175.91 26.4003 174.884 27.4269 173.764 28.3603C172.67 29.2669 171.604 29.9869 170.564 30.5203C169.524 31.0803 168.63 31.3603 167.884 31.3603ZM167.764 30.0403C168.564 30.0403 169.444 29.7603 170.404 29.2003C171.364 28.6669 172.324 27.9603 173.284 27.0803C174.244 26.2003 175.124 25.2536 175.924 24.2403C176.724 23.2003 177.364 22.1869 177.844 21.2003C178.324 20.1869 178.564 19.2936 178.564 18.5203C178.564 17.3203 177.964 16.7203 176.764 16.7203C175.697 16.7203 174.657 17.0403 173.644 17.6803C172.63 18.3203 171.644 19.1736 170.684 20.2403C169.75 21.3069 168.87 22.4803 168.044 23.7603C167.217 25.0403 166.457 26.3336 165.764 27.6403C166.004 27.4003 166.23 27.2803 166.444 27.2803C166.817 27.2803 167.004 27.4536 167.004 27.8003C167.004 27.9603 166.937 28.1336 166.804 28.3203C166.75 28.4003 166.697 28.4936 166.644 28.6003C166.59 28.7069 166.564 28.8669 166.564 29.0803C166.564 29.7203 166.964 30.0403 167.764 30.0403Z" fill="white"/>
<path d="M150.992 30.0004C150.566 30.0004 150.352 29.8271 150.352 29.4804C150.352 29.3204 150.392 29.1604 150.472 29.0004C150.579 28.8404 150.659 28.7071 150.712 28.6004L154.352 21.2404C155.899 18.0937 156.672 16.3471 156.672 16.0004C156.672 15.6271 156.859 15.4404 157.232 15.4404C157.739 15.4404 157.992 15.6937 157.992 16.2004C157.992 16.4671 157.872 16.8937 157.632 17.4804C157.392 18.0671 157.086 18.7471 156.712 19.5204C156.072 20.9071 155.539 21.9737 155.112 22.7204C155.912 21.7871 156.726 20.9071 157.552 20.0804C158.379 19.2537 159.219 18.4671 160.072 17.7204C162.606 15.5071 164.552 14.4004 165.912 14.4004C166.846 14.4004 167.312 14.8404 167.312 15.7204C167.312 16.5737 167.032 17.0004 166.472 17.0004C166.206 17.0004 166.006 16.7737 165.872 16.3204C165.792 16.0004 165.606 15.8404 165.312 15.8404C164.859 15.8404 163.979 16.3337 162.672 17.3204C161.232 18.3871 159.779 19.6537 158.312 21.1204C156.872 22.5871 155.339 24.4537 153.712 26.7204L151.712 29.5204C151.606 29.6537 151.499 29.7604 151.392 29.8404C151.312 29.9471 151.179 30.0004 150.992 30.0004Z" fill="white"/>
<path d="M135.948 29.4001C134.401 29.4001 133.628 28.6668 133.628 27.2001C133.628 26.2401 133.855 25.2135 134.308 24.1201C134.788 23.0001 135.428 21.9201 136.228 20.8801C137.028 19.8135 137.922 18.8535 138.908 18.0001C139.895 17.1201 140.908 16.4268 141.948 15.9201C142.988 15.3868 143.988 15.1201 144.948 15.1201C146.655 15.1201 147.508 15.9601 147.508 17.6401C147.508 18.7335 147.242 19.2801 146.708 19.2801C146.228 19.2801 145.988 19.0535 145.988 18.6001C145.988 18.4135 146.028 18.2268 146.108 18.0401C146.215 17.8268 146.268 17.6001 146.268 17.3601C146.268 16.6135 145.762 16.2401 144.748 16.2401C143.122 16.2401 141.082 17.4801 138.628 19.9601C138.042 20.5735 137.468 21.2935 136.908 22.1201C136.348 22.9468 135.881 23.7868 135.508 24.6401C135.161 25.4668 134.988 26.2535 134.988 27.0001C134.988 27.7201 135.388 28.0801 136.188 28.0801C136.882 28.0801 137.615 27.8668 138.388 27.4401C139.188 27.0135 139.882 26.5735 140.468 26.1201C141.642 25.2401 142.842 24.0401 144.068 22.5201C144.255 22.3068 144.495 22.0268 144.788 21.6801C145.082 21.3335 145.415 20.9468 145.788 20.5201C145.922 20.3868 146.082 20.3201 146.268 20.3201C146.695 20.3201 146.908 20.5335 146.908 20.9601L145.388 23.2401C144.375 24.7335 143.868 25.9601 143.868 26.9201C143.868 27.6134 144.201 27.9601 144.868 27.9601C145.428 27.9601 146.042 27.8135 146.708 27.5201C147.375 27.2268 147.922 26.9335 148.348 26.6401C149.202 26.0801 150.095 25.3868 151.028 24.5601C151.962 23.7068 152.855 22.8535 153.708 22.0001C153.815 21.8935 153.975 21.8401 154.188 21.8401C154.588 21.8401 154.788 22.0001 154.788 22.3201C154.788 22.6135 154.601 22.9468 154.228 23.3201C153.161 24.3868 152.202 25.3068 151.348 26.0801C150.495 26.8268 149.682 27.4401 148.908 27.9201C148.402 28.2134 147.775 28.5201 147.028 28.8401C146.282 29.1601 145.428 29.3201 144.468 29.3201C143.162 29.3201 142.508 28.6268 142.508 27.2401C142.508 26.7068 142.575 26.2668 142.708 25.9201C140.282 28.2401 138.028 29.4001 135.948 29.4001Z" fill="white"/>
<path d="M105.298 31.96C104.871 31.96 104.658 31.7467 104.658 31.32C104.658 31.0267 104.751 30.6 104.938 30.04C104.484 30.04 104.258 29.84 104.258 29.44C104.258 28.96 104.644 28.7467 105.418 28.8C106.404 26.4 108.844 21.8933 112.738 15.28C113.751 13.5467 114.804 11.7867 115.898 10C116.991 8.21333 118.111 6.42667 119.258 4.64C115.658 5.6 113.978 6.08 114.218 6.08C113.791 6.08 113.578 5.85333 113.578 5.4C113.578 5.16 113.724 4.97333 114.018 4.84C114.471 4.62667 115.218 4.37333 116.258 4.08C117.298 3.76 118.631 3.4 120.258 3C120.498 2.62667 120.711 2.28 120.898 1.96C121.111 1.64 121.311 1.36 121.498 1.12C122.058 0.373333 122.458 0 122.698 0C123.124 0 123.338 0.186667 123.338 0.56C123.338 0.719999 123.191 1.01333 122.898 1.44C122.604 1.86667 122.324 2.30667 122.058 2.76C122.698 2.65333 123.498 2.52 124.458 2.36C125.418 2.17333 126.604 2.08 128.018 2.08C133.324 2.08 135.978 3.29333 135.978 5.72C135.978 6.70667 135.658 7.62667 135.018 8.48C134.378 9.30667 133.511 10.0667 132.418 10.76C131.351 11.4533 130.164 12.08 128.858 12.64C127.551 13.1733 126.231 13.64 124.898 14.04C128.844 14.9467 130.818 16.8 130.818 19.6C130.818 21.0667 130.378 22.3867 129.498 23.56C128.644 24.7333 127.511 25.7467 126.098 26.6C124.684 27.4533 123.124 28.1467 121.418 28.68C117.951 29.7467 113.911 30.28 109.298 30.28C108.338 30.28 107.351 30.24 106.338 30.16C106.071 30.72 105.938 31.1067 105.938 31.32C105.938 31.7467 105.724 31.96 105.298 31.96ZM109.578 29C113.738 29 117.458 28.52 120.738 27.56C122.258 27.1067 123.684 26.4933 125.018 25.72C126.378 24.9467 127.471 24.04 128.298 23C129.151 21.9333 129.578 20.7867 129.578 19.56C129.578 17.88 128.444 16.6 126.178 15.72C124.471 15.08 122.604 14.76 120.578 14.76C119.884 14.76 119.218 14.8 118.578 14.88C117.858 15.0667 117.458 15.16 117.378 15.16C116.978 15.16 116.778 14.9333 116.778 14.48C116.778 14.1067 116.991 13.92 117.418 13.92C120.138 13.92 123.244 13.3067 126.738 12.08C128.018 11.6267 129.258 11.0933 130.458 10.48C131.684 9.84 132.684 9.13333 133.458 8.36C134.258 7.56 134.658 6.72 134.658 5.84C134.658 4.24 132.444 3.44 128.018 3.44C126.978 3.44 125.884 3.50667 124.738 3.64C123.618 3.77333 122.431 3.97333 121.178 4.24C118.004 9.14667 115.218 13.6533 112.818 17.76C110.418 21.8667 108.431 25.5867 106.858 28.92C107.071 28.9467 107.338 28.9733 107.658 29C107.978 29 108.618 29 109.578 29Z" fill="white"/>
<path d="M63.962 30.3597C63.5086 30.3597 63.282 30.1464 63.282 29.7197C63.282 29.693 63.442 29.3597 63.762 28.7197C64.082 28.0797 64.5353 27.133 65.122 25.8797L67.162 21.5997C67.9886 19.8664 68.5753 18.493 68.922 17.4797C69.2953 16.4664 69.482 15.813 69.482 15.5197C69.482 15.093 69.6953 14.8797 70.122 14.8797C70.5486 14.8797 70.762 15.093 70.762 15.5197C70.762 15.8664 70.642 16.413 70.402 17.1597C70.1887 17.8797 69.8286 18.813 69.322 19.9597L67.282 24.5997C72.8553 17.5597 77.0553 14.0397 79.882 14.0397C80.4153 14.0397 80.8286 14.2664 81.122 14.7197C81.4153 15.1464 81.562 15.6264 81.562 16.1597C81.562 17.4397 80.642 19.6664 78.802 22.8397C80.2153 21.3997 81.642 19.9597 83.082 18.5197C84.5487 17.053 86.0153 15.613 87.482 14.1997C87.8553 13.853 88.162 13.6797 88.402 13.6797C88.722 13.6797 88.9886 13.8397 89.202 14.1597C89.4153 14.453 89.522 14.773 89.522 15.1197C89.522 15.3864 89.402 15.7197 89.162 16.1197C88.8153 16.7064 88.4953 17.413 88.202 18.2397C87.9086 19.0397 87.5753 19.9464 87.202 20.9597C86.7753 22.1064 86.4686 23.1064 86.282 23.9597C86.0953 24.813 86.002 25.5064 86.002 26.0397C86.002 26.7064 86.162 27.1997 86.482 27.5197C86.802 27.813 87.122 27.9597 87.442 27.9597C88.002 27.9597 88.6153 27.813 89.282 27.5197C89.9486 27.2264 90.4953 26.933 90.922 26.6397C91.7753 26.0797 92.6686 25.3864 93.602 24.5597C94.5353 23.7064 95.4286 22.853 96.282 21.9997C96.3886 21.893 96.5487 21.8397 96.762 21.8397C97.162 21.8397 97.362 21.9997 97.362 22.3197C97.362 22.613 97.1753 22.9464 96.802 23.3197C95.7353 24.3864 94.7753 25.3064 93.922 26.0797C93.0686 26.8264 92.2553 27.4397 91.482 27.9197C90.9753 28.213 90.362 28.5197 89.642 28.8397C88.922 29.1597 88.1487 29.3197 87.322 29.3197C86.5487 29.3197 85.8953 29.0797 85.362 28.5997C84.8553 28.1197 84.602 27.093 84.602 25.5197C84.602 24.9064 84.7086 24.1864 84.922 23.3597C85.1353 22.5064 85.4553 21.5597 85.882 20.5197L88.002 15.4797L82.282 21.2397C81.6153 21.9064 81.0686 22.4664 80.642 22.9197C80.2153 23.373 79.8686 23.7464 79.602 24.0397C79.0953 24.573 78.642 25.093 78.242 25.5997C77.8686 26.1064 77.5486 26.5464 77.282 26.9197C77.0953 27.213 76.882 27.3597 76.642 27.3597C76.1886 27.3597 75.962 27.173 75.962 26.7997C75.962 25.973 76.7086 24.0664 78.202 21.0797C79.6953 18.093 80.442 16.3064 80.442 15.7197C80.442 15.453 80.1486 15.3197 79.562 15.3197C77.1886 15.3197 72.962 19.1997 66.882 26.9597C66.3753 27.6797 65.5353 28.7597 64.362 30.1997C64.282 30.3064 64.1486 30.3597 63.962 30.3597Z" fill="white"/>
<path d="M48.8779 29.4001C47.3312 29.4001 46.5579 28.6668 46.5579 27.2001C46.5579 26.2401 46.7845 25.2135 47.2379 24.1201C47.7179 23.0001 48.3579 21.9201 49.1579 20.8801C49.9579 19.8135 50.8512 18.8535 51.8379 18.0001C52.8245 17.1201 53.8379 16.4268 54.8779 15.9201C55.9179 15.3868 56.9179 15.1201 57.8779 15.1201C59.5845 15.1201 60.4379 15.9601 60.4379 17.6401C60.4379 18.7335 60.1712 19.2801 59.6379 19.2801C59.1579 19.2801 58.9179 19.0535 58.9179 18.6001C58.9179 18.4135 58.9579 18.2268 59.0379 18.0401C59.1445 17.8268 59.1979 17.6001 59.1979 17.3601C59.1979 16.6135 58.6912 16.2401 57.6779 16.2401C56.0512 16.2401 54.0112 17.4801 51.5579 19.9601C50.9712 20.5735 50.3979 21.2935 49.8379 22.1201C49.2779 22.9468 48.8112 23.7868 48.4379 24.6401C48.0912 25.4668 47.9179 26.2535 47.9179 27.0001C47.9179 27.7201 48.3179 28.0801 49.1179 28.0801C49.8112 28.0801 50.5445 27.8668 51.3179 27.4401C52.1179 27.0135 52.8112 26.5735 53.3979 26.1201C54.5712 25.2401 55.7712 24.0401 56.9979 22.5201C57.1845 22.3068 57.4245 22.0268 57.7179 21.6801C58.0112 21.3335 58.3445 20.9468 58.7179 20.5201C58.8512 20.3868 59.0112 20.3201 59.1979 20.3201C59.6245 20.3201 59.8379 20.5335 59.8379 20.9601L58.3179 23.2401C57.3045 24.7335 56.7979 25.9601 56.7979 26.9201C56.7979 27.6134 57.1312 27.9601 57.7979 27.9601C58.3579 27.9601 58.9712 27.8135 59.6379 27.5201C60.3045 27.2268 60.8512 26.9335 61.2779 26.6401C62.1312 26.0801 63.0245 25.3868 63.9579 24.5601C64.8912 23.7068 65.7845 22.8535 66.6379 22.0001C66.7445 21.8935 66.9045 21.8401 67.1179 21.8401C67.5179 21.8401 67.7179 22.0001 67.7179 22.3201C67.7179 22.6135 67.5312 22.9468 67.1579 23.3201C66.0912 24.3868 65.1312 25.3068 64.2779 26.0801C63.4245 26.8268 62.6112 27.4401 61.8379 27.9201C61.3312 28.2134 60.7045 28.5201 59.9579 28.8401C59.2112 29.1601 58.3579 29.3201 57.3979 29.3201C56.0912 29.3201 55.4379 28.6268 55.4379 27.2401C55.4379 26.7068 55.5045 26.2668 55.6379 25.9201C53.2112 28.2401 50.9579 29.4001 48.8779 29.4001Z" fill="white"/>
<path d="M43.3591 32.5605C43.1458 32.5605 42.8791 32.4538 42.5591 32.2405C42.2658 32.0538 42.0391 31.8671 41.8791 31.6805C41.5591 31.2805 41.3458 30.8005 41.2391 30.2405C41.1324 29.6805 41.0791 29.0671 41.0791 28.4005C41.0791 27.8405 41.0924 27.2405 41.1191 26.6005C41.1724 25.9338 41.2524 25.2271 41.3591 24.4805C40.6658 25.2805 39.8791 26.0671 38.9991 26.8405C38.1458 27.5871 37.2658 28.2005 36.3591 28.6805C35.4791 29.1605 34.6391 29.4005 33.8391 29.4005C31.8391 29.4005 30.8391 28.3338 30.8391 26.2005C30.8391 23.9871 31.6124 21.8538 33.1591 19.8005C33.9324 18.7871 34.8124 17.8138 35.7991 16.8805C36.7858 15.9471 37.8258 15.1871 38.9191 14.6005C40.0124 14.0138 41.0924 13.7205 42.1591 13.7205C42.9591 13.7205 43.6658 14.0271 44.2791 14.6405C44.3324 14.5338 44.3991 14.3605 44.4791 14.1205C44.5858 13.8805 44.7324 13.5738 44.9191 13.2005C45.5591 11.8138 46.2658 10.3738 47.0391 8.88047C47.8124 7.36047 48.5058 6.10714 49.1191 5.12047C49.8124 4.02714 50.4658 3.48047 51.0791 3.48047C51.5058 3.48047 51.7191 3.8138 51.7191 4.48047C51.7191 5.62713 50.6391 8.30713 48.4791 12.5205C48.3458 12.7605 48.1058 13.2005 47.7591 13.8405C47.4391 14.4538 47.0524 15.1738 46.5991 16.0005C46.1724 16.8005 45.7324 17.6005 45.2791 18.4005C44.8258 19.2005 44.4124 19.9205 44.0391 20.5605C43.6924 21.1738 43.4391 21.6005 43.2791 21.8405C42.9858 23.0405 42.7591 24.1871 42.5991 25.2805C42.4391 26.3471 42.3591 27.4538 42.3591 28.6005C42.3591 29.0271 42.3724 29.4138 42.3991 29.7605C42.4524 30.1338 42.5591 30.4271 42.7191 30.6405C42.8524 30.8005 42.9991 30.9205 43.1591 31.0005C43.3191 31.1071 43.5058 31.2005 43.7191 31.2805C44.0391 31.3605 44.1991 31.5471 44.1991 31.8405C44.1991 32.3205 43.9191 32.5605 43.3591 32.5605ZM45.2391 15.8405C46.2524 14.1071 47.1458 12.4938 47.9191 11.0005C48.6924 9.48047 49.3191 8.0538 49.7991 6.72047C48.7324 8.10714 47.8391 9.5738 47.1191 11.1205C46.3991 12.6671 45.7724 14.2405 45.2391 15.8405ZM33.5591 28.2005C34.3324 28.2005 35.1458 27.9471 35.9991 27.4405C36.8791 26.9071 37.7058 26.2805 38.4791 25.5605C39.1724 24.9205 39.8124 24.2671 40.3991 23.6005C40.9858 22.9071 41.5324 22.2005 42.0391 21.4805C42.2524 20.5471 42.4924 19.6271 42.7591 18.7205C43.0524 17.8138 43.3724 16.9071 43.7191 16.0005C43.2924 15.3338 42.6924 15.0005 41.9191 15.0005C41.1191 15.0005 40.2258 15.3071 39.2391 15.9205C38.2791 16.5071 37.3458 17.2405 36.4391 18.1205C35.5591 19.0005 34.7991 19.8405 34.1591 20.6405C32.8258 22.4271 32.1591 24.3205 32.1591 26.3205C32.1591 27.5738 32.6258 28.2005 33.5591 28.2005Z" fill="white"/>
<path d="M1.48005 31.36C1.02672 31.36 0.800049 31.1467 0.800049 30.72C0.800049 30.56 0.813382 30.4534 0.840049 30.4C1.82672 28.24 4.50672 25.0134 8.88005 20.72C8.74672 20.7467 8.62672 20.7734 8.52005 20.8C8.41338 20.8 8.33338 20.8 8.28005 20.8C7.82672 20.8 7.60005 20.5467 7.60005 20.04C7.60005 19.7467 7.82672 19.56 8.28005 19.48C8.54672 19.4267 8.82672 19.3867 9.12005 19.36C9.44005 19.3067 9.84005 19.2267 10.32 19.12C13.5467 15.76 16.6534 12.88 19.64 10.48C22.6534 8.05337 25.5334 6.06671 28.2801 4.52004C28.5201 4.38671 28.7334 4.28004 28.92 4.20004C29.1067 4.09337 29.2667 4.04004 29.4001 4.04004C29.7201 4.04004 29.8801 4.25337 29.8801 4.68004C29.8801 5.48004 29.0801 8.22671 27.4801 12.92L25.7201 18.08C26.4134 18.08 26.7601 18.2934 26.7601 18.72C26.7601 19.2 26.3067 19.44 25.4 19.44C24.8934 20.8267 24.4134 22.36 23.9601 24.04C23.5334 25.6934 23.1734 27.4 22.8801 29.16C22.7734 29.72 22.5334 30 22.1601 30C21.7067 30 21.48 29.76 21.48 29.28C21.48 29.2 21.5067 29.0267 21.5601 28.76C21.6134 28.4934 21.6934 28.1467 21.8001 27.72C22.1201 26.1734 22.4001 24.8934 22.6401 23.88C22.9067 22.8667 23.1334 22.0134 23.32 21.32C23.5334 20.6 23.7201 19.9467 23.8801 19.36C18.9734 19.4667 14.6534 19.8267 10.92 20.44C9.85338 21.5334 8.96005 22.4667 8.24005 23.24C7.52005 23.9867 6.98672 24.5467 6.64005 24.92C5.04005 26.68 3.76005 28.28 2.80005 29.72C2.72005 29.8534 2.62672 30.0267 2.52005 30.24C2.38672 30.4534 2.22672 30.7067 2.04005 31C1.93338 31.24 1.74672 31.36 1.48005 31.36ZM12.56 18.8C14.1067 18.5867 15.8534 18.4267 17.8 18.32C19.7467 18.1867 21.9334 18.0934 24.3601 18.04C24.76 16.8134 25.1601 15.6267 25.5601 14.48C25.9601 13.3067 26.3467 12.1867 26.7201 11.12C27.1734 9.94671 27.7734 8.18671 28.5201 5.84004C25.4267 7.62671 22.5467 9.60004 19.8801 11.76C17.2401 13.92 14.8 16.2667 12.56 18.8Z" fill="white"/>
</svg>
