<svg width="159" height="24" viewBox="0 0 159 24" fill="none" xmlns="http://www.w3.org/2000/svg">
<path d="M147.128 23.4237C146.722 23.4237 146.52 23.1037 146.52 22.4637C146.52 21.525 147.042 19.8823 148.088 17.5357C149.154 15.189 150.733 12.117 152.824 8.31968C152.013 8.31968 151.245 8.42635 150.52 8.63968C149.816 8.83168 149.442 9.07701 149.4 9.37568C149.378 9.46101 149.325 9.54635 149.24 9.63168C149.176 9.69568 149.069 9.72768 148.92 9.72768C148.578 9.72768 148.408 9.55701 148.408 9.21568C148.408 8.66101 148.845 8.20235 149.72 7.83968C150.594 7.47701 151.821 7.29568 153.4 7.29568L155.608 3.64768C155.757 3.41301 155.917 3.15701 156.088 2.87968C156.258 2.58101 156.45 2.26101 156.664 1.91968C156.877 1.62101 157.122 1.47168 157.4 1.47168C157.57 1.47168 157.698 1.52501 157.784 1.63168C157.869 1.71701 157.912 1.81301 157.912 1.91968C157.912 2.23968 157.442 3.09301 156.504 4.47968C155.33 6.20768 154.701 7.14635 154.616 7.29568C154.936 7.29568 155.416 7.32768 156.056 7.39168C156.696 7.43435 157.453 7.50901 158.328 7.61568C158.648 7.63701 158.808 7.79701 158.808 8.09568C158.808 8.43701 158.616 8.60768 158.232 8.60768C158.082 8.60768 157.784 8.58635 157.336 8.54368C156.888 8.47968 156.408 8.42635 155.896 8.38368C155.384 8.34101 154.946 8.33035 154.584 8.35168L154.104 8.38368C149.773 15.9997 147.618 20.7357 147.64 22.5917L147.672 22.8477V22.9117C147.672 23.253 147.49 23.4237 147.128 23.4237Z" fill="white"/>
<path d="M133.257 22.0161C132.916 22.0161 132.745 21.8775 132.745 21.6001C132.745 21.4935 132.788 21.3655 132.873 21.2161C132.958 21.0455 133.033 20.9068 133.097 20.8001L135.977 15.0081C137.214 12.4908 137.833 11.0935 137.833 10.8161C137.833 10.5175 137.982 10.3681 138.281 10.3681C138.686 10.3681 138.889 10.5815 138.889 11.0081C138.889 11.1575 138.793 11.4775 138.601 11.9681C138.409 12.4588 138.164 13.0135 137.865 13.6321C137.353 14.7415 136.926 15.5948 136.585 16.1921C137.225 15.4455 137.876 14.7415 138.537 14.0801C139.198 13.4188 139.87 12.7895 140.553 12.1921C142.58 10.4215 144.137 9.53613 145.225 9.53613C145.972 9.53613 146.345 9.88813 146.345 10.5921C146.345 11.2321 145.801 12.6721 144.713 14.9121C143.625 17.1735 143.081 18.6028 143.081 19.2001C143.081 19.4775 143.177 19.6161 143.369 19.6161C143.433 19.6161 143.529 19.5948 143.657 19.5521C143.806 19.4881 143.956 19.4561 144.105 19.4561C144.468 19.4561 144.649 19.6268 144.649 19.9681C144.649 20.3948 144.19 20.6081 143.273 20.6081C142.846 20.6081 142.537 20.5121 142.345 20.3201C142.153 20.1068 142.057 19.8295 142.057 19.4881C142.057 18.4641 142.58 16.9068 143.625 14.8161C144.67 12.7468 145.193 11.4988 145.193 11.0721C145.193 10.8161 145.097 10.6881 144.905 10.6881C144.436 10.6881 143.678 11.0828 142.633 11.8721C141.502 12.7255 140.372 13.7068 139.241 14.8161C138.11 15.9255 137.033 17.1948 136.009 18.6241L133.769 21.7281C133.641 21.9201 133.47 22.0161 133.257 22.0161Z" fill="white"/>
<path d="M126.312 21.0555C124.584 21.0555 123.72 20.0849 123.72 18.1435C123.72 17.2475 123.934 16.3089 124.36 15.3275C124.787 14.3462 125.352 13.4395 126.056 12.6075C126.76 11.7542 127.539 11.0609 128.392 10.5275C129.267 9.99421 130.152 9.72754 131.048 9.72754C131.838 9.72754 132.414 10.0262 132.776 10.6235C133.139 11.2209 133.32 11.8822 133.32 12.6075C133.32 13.5675 133.128 14.5489 132.744 15.5515C132.36 16.5329 131.838 17.4395 131.176 18.2715C130.515 19.1035 129.768 19.7755 128.936 20.2875C128.104 20.7995 127.23 21.0555 126.312 21.0555ZM126.28 20.0315C126.408 20.0315 126.483 20.0209 126.504 19.9995C127.336 19.8929 128.104 19.5942 128.808 19.1035C129.512 18.6129 130.12 18.0049 130.632 17.2795C131.166 16.5329 131.571 15.7329 131.848 14.8795C132.126 14.0262 132.264 13.1835 132.264 12.3515C132.264 11.8609 132.126 11.4769 131.848 11.1995C131.571 10.9222 131.219 10.7835 130.792 10.7835C130.174 10.7835 129.512 11.0395 128.808 11.5515C128.126 12.0635 127.475 12.7142 126.856 13.5035C126.259 14.2929 125.768 15.1249 125.384 15.9995C125 16.8529 124.808 17.6209 124.808 18.3035C124.808 19.4555 125.299 20.0315 126.28 20.0315Z" fill="white"/>
<path d="M108.575 22.336C108.213 22.336 108.031 22.1547 108.031 21.792C108.031 21.664 108.106 21.376 108.255 20.928C108.682 19.6053 109.407 17.984 110.431 16.064C111.477 14.144 112.821 11.9253 114.463 9.408C113.93 9.408 113.663 9.23733 113.663 8.896C113.663 8.576 113.855 8.40533 114.239 8.384H115.135C115.754 7.488 116.287 6.72 116.735 6.08C117.183 5.44 117.578 4.896 117.919 4.448C118.346 3.872 118.783 3.30667 119.231 2.752C119.679 2.176 120.117 1.64267 120.543 1.152C120.458 1.152 120.373 1.16267 120.287 1.184C120.202 1.184 120.127 1.184 120.063 1.184C119.231 1.184 118.815 0.981333 118.815 0.576C118.815 0.192 119.146 0 119.807 0H130.527C130.869 0 131.05 0.170667 131.071 0.512001C131.071 0.896001 130.901 1.088 130.559 1.088H121.951C121.418 1.74933 120.874 2.432 120.319 3.136C119.786 3.81867 119.199 4.58667 118.559 5.44C117.941 6.272 117.226 7.25333 116.415 8.384H124.287C124.629 8.384 124.799 8.55467 124.799 8.896C124.799 9.23733 124.629 9.41867 124.287 9.44H115.711C113.749 12.4267 112.223 14.9333 111.135 16.96C110.069 18.9867 109.386 20.6507 109.087 21.952C109.023 22.208 108.853 22.336 108.575 22.336Z" fill="white"/>
<path d="M92.4065 21.6634C91.2759 21.6634 90.3905 21.3327 89.7505 20.6714C89.1105 20.0101 88.7905 19.1247 88.7905 18.0154C88.7905 16.0954 89.6972 14.0047 91.5105 11.7434C92.4492 10.5914 93.3985 9.71674 94.3585 9.11941C95.3399 8.50074 96.2572 8.19141 97.1105 8.19141C97.8572 8.19141 98.4332 8.44741 98.8385 8.95941C99.2439 9.47141 99.4465 10.1114 99.4465 10.8794C99.4465 11.3487 99.3825 11.8287 99.2545 12.3194C99.1692 12.6607 98.9985 12.8314 98.7425 12.8314C98.3372 12.8314 98.1345 12.6074 98.1345 12.1594C98.1345 11.9674 98.1665 11.7221 98.2305 11.4234C98.3159 11.1034 98.3585 10.7941 98.3585 10.4954C98.3585 9.64207 97.9425 9.21541 97.1105 9.21541C96.6625 9.21541 96.1185 9.37541 95.4785 9.69541C94.8599 10.0154 94.2412 10.4421 93.6225 10.9754C93.0039 11.4874 92.4599 12.0741 91.9905 12.7354C90.5612 14.6767 89.8465 16.4154 89.8465 17.9514C89.8465 19.7221 90.6465 20.6074 92.2465 20.6074C93.2492 20.6074 94.2092 20.4581 95.1265 20.1594C96.0439 19.8394 97.1212 19.1887 98.3585 18.2074C99.1265 17.6101 99.7025 17.1301 100.087 16.7674C100.471 16.4047 100.887 16.0207 101.335 15.6154C101.463 15.5301 101.58 15.4874 101.687 15.4874C101.793 15.4874 101.9 15.5194 102.007 15.5834C102.113 15.6474 102.167 15.7434 102.167 15.8714C102.167 16.1061 101.953 16.4367 101.527 16.8634C101.164 17.2047 100.78 17.5674 100.375 17.9514C99.9692 18.3141 99.3292 18.8261 98.4545 19.4874C97.5159 20.2127 96.5132 20.7567 95.4465 21.1194C94.4012 21.4821 93.3879 21.6634 92.4065 21.6634Z" fill="white"/>
<path d="M79.2044 22.2721C78.0097 22.2721 77.4124 21.8775 77.4124 21.0881C77.4124 20.5975 77.583 20.1068 77.9244 19.6161C78.287 19.1255 78.7137 18.6775 79.2044 18.2721C79.695 17.8668 80.1537 17.5575 80.5804 17.3441C80.7084 17.2801 80.879 17.2161 81.0924 17.1521C81.327 17.0881 81.519 17.0561 81.6684 17.0561C81.839 17.0561 81.9244 17.1201 81.9244 17.2481C81.9244 17.3548 81.807 17.4721 81.5724 17.6001C80.591 18.0695 79.823 18.6348 79.2684 19.2961C78.735 19.9361 78.4684 20.4588 78.4684 20.8641C78.4684 21.2481 78.799 21.4401 79.4604 21.4401C80.015 21.4401 80.6124 21.3015 81.2524 21.0241C81.9137 20.7468 82.5324 20.3841 83.1084 19.9361C83.7057 19.4881 84.1964 19.0081 84.5804 18.4961C84.9644 17.9841 85.1564 17.4935 85.1564 17.0241C85.1564 16.7041 85.0497 16.4161 84.8364 16.1601C84.6444 15.9041 84.3244 15.7121 83.8764 15.5841L81.7644 14.9441C81.231 14.7735 80.847 14.5495 80.6124 14.2721C80.3777 13.9948 80.2604 13.6855 80.2604 13.3441C80.2604 12.7041 80.495 12.1281 80.9644 11.6161C81.455 11.1041 82.063 10.6988 82.7884 10.4001C83.5137 10.1015 84.2177 9.95215 84.9004 9.95215C85.583 9.95215 86.1804 10.1228 86.6924 10.4641C87.2044 10.7841 87.4604 11.2215 87.4604 11.7761C87.4604 12.0961 87.3644 12.3948 87.1724 12.6721C87.0017 12.9495 86.799 13.0881 86.5644 13.0881C86.2017 13.0881 86.0204 12.9388 86.0204 12.6401C86.0204 12.5335 86.0737 12.4055 86.1804 12.2561C86.3084 12.0855 86.3724 11.9255 86.3724 11.7761C86.3724 11.1361 85.8817 10.8161 84.9004 10.8161C84.367 10.8161 83.8337 10.9335 83.3004 11.1681C82.7884 11.3815 82.3617 11.6695 82.0204 12.0321C81.679 12.3948 81.5084 12.7895 81.5084 13.2161C81.5084 13.6428 81.935 13.9841 82.7884 14.2401L84.8364 14.8801C85.455 15.0721 85.8817 15.3388 86.1164 15.6801C86.351 16.0001 86.4684 16.3628 86.4684 16.7681C86.4684 17.7281 85.8817 18.7201 84.7084 19.7441C82.8097 21.4295 80.975 22.2721 79.2044 22.2721Z" fill="white"/>
<path d="M70.5143 21.7921C69.6183 21.7921 68.9143 21.4828 68.4023 20.8641C67.8903 20.2455 67.6343 19.4881 67.6343 18.5921C67.6343 17.0561 68.1463 15.4775 69.1703 13.8561C69.4476 13.4081 69.7676 12.9708 70.1303 12.5441C70.4929 12.0961 70.8876 11.6695 71.3143 11.2641C71.9543 10.6455 72.6263 10.1335 73.3303 9.72812C74.0343 9.32278 74.7169 9.12012 75.3783 9.12012C76.4663 9.12012 77.0103 9.63212 77.0103 10.6561C77.0103 11.9361 76.2636 13.0988 74.7703 14.1441C73.3836 15.0828 72.0183 15.5521 70.6743 15.5521C70.4396 15.5521 70.2263 15.5415 70.0343 15.5201C69.8636 15.4775 69.7036 15.4348 69.5543 15.3921C69.3409 15.7975 69.1489 16.3201 68.9783 16.9601C68.8076 17.6001 68.7223 18.1548 68.7223 18.6241C68.7223 20.0321 69.3409 20.7361 70.5783 20.7361C71.5809 20.7361 72.5303 20.5655 73.4263 20.2241C74.3223 19.8615 75.3889 19.1895 76.6263 18.2081C77.3943 17.6108 77.9703 17.1308 78.3543 16.7681C78.7383 16.4055 79.1543 16.0215 79.6023 15.6161C79.7303 15.5308 79.8476 15.4881 79.9543 15.4881C80.0609 15.4881 80.1676 15.5201 80.2743 15.5841C80.381 15.6481 80.4343 15.7441 80.4343 15.8721C80.4343 16.1068 80.2209 16.4375 79.7943 16.8641C79.4316 17.2055 79.0476 17.5681 78.6423 17.9521C78.2369 18.3148 77.5969 18.8268 76.7223 19.4881C75.7836 20.2135 74.7596 20.7788 73.6503 21.1841C72.5409 21.5895 71.4956 21.7921 70.5143 21.7921ZM70.4823 14.5281C71.1649 14.5281 71.8156 14.4215 72.4343 14.2081C73.0529 13.9948 73.6396 13.6855 74.1943 13.2801C75.4316 12.3628 76.0503 11.4988 76.0503 10.6881C76.0503 10.3255 75.8263 10.1441 75.3783 10.1441C74.5249 10.1441 73.5329 10.6668 72.4023 11.7121C71.8476 12.2241 71.3889 12.6935 71.0263 13.1201C70.6849 13.5255 70.3649 13.9735 70.0663 14.4641C70.1943 14.5068 70.3329 14.5281 70.4823 14.5281Z" fill="white"/>
<path d="M59.3753 21.6634C58.2446 21.6634 57.3593 21.3327 56.7193 20.6714C56.0793 20.0101 55.7593 19.1247 55.7593 18.0154C55.7593 16.0954 56.6659 14.0047 58.4793 11.7434C59.4179 10.5914 60.3673 9.71674 61.3273 9.11941C62.3086 8.50074 63.2259 8.19141 64.0793 8.19141C64.8259 8.19141 65.4019 8.44741 65.8073 8.95941C66.2126 9.47141 66.4153 10.1114 66.4153 10.8794C66.4153 11.3487 66.3513 11.8287 66.2233 12.3194C66.1379 12.6607 65.9673 12.8314 65.7113 12.8314C65.3059 12.8314 65.1033 12.6074 65.1033 12.1594C65.1033 11.9674 65.1353 11.7221 65.1993 11.4234C65.2846 11.1034 65.3273 10.7941 65.3273 10.4954C65.3273 9.64207 64.9113 9.21541 64.0793 9.21541C63.6313 9.21541 63.0873 9.37541 62.4473 9.69541C61.8286 10.0154 61.2099 10.4421 60.5913 10.9754C59.9726 11.4874 59.4286 12.0741 58.9593 12.7354C57.5299 14.6767 56.8153 16.4154 56.8153 17.9514C56.8153 19.7221 57.6153 20.6074 59.2153 20.6074C60.2179 20.6074 61.1779 20.4581 62.0953 20.1594C63.0126 19.8394 64.0899 19.1887 65.3273 18.2074C66.0953 17.6101 66.6713 17.1301 67.0553 16.7674C67.4393 16.4047 67.8553 16.0207 68.3033 15.6154C68.4313 15.5301 68.5486 15.4874 68.6553 15.4874C68.7619 15.4874 68.8686 15.5194 68.9753 15.5834C69.0819 15.6474 69.1353 15.7434 69.1353 15.8714C69.1353 16.1061 68.9219 16.4367 68.4953 16.8634C68.1326 17.2047 67.7486 17.5674 67.3433 17.9514C66.9379 18.3141 66.2979 18.8261 65.4233 19.4874C64.4846 20.2127 63.4819 20.7567 62.4153 21.1194C61.3699 21.4821 60.3566 21.6634 59.3753 21.6634Z" fill="white"/>
<path d="M41.6006 22.0161C41.2593 22.0161 41.0886 21.8775 41.0886 21.6001C41.0886 21.4935 41.1313 21.3655 41.2166 21.2161C41.302 21.0455 41.3766 20.9068 41.4406 20.8001L44.3206 15.0081C45.558 12.4908 46.1766 11.0935 46.1766 10.8161C46.1766 10.5175 46.326 10.3681 46.6246 10.3681C47.03 10.3681 47.2326 10.5815 47.2326 11.0081C47.2326 11.1575 47.1366 11.4775 46.9446 11.9681C46.7526 12.4588 46.5073 13.0135 46.2086 13.6321C45.6966 14.7415 45.27 15.5948 44.9286 16.1921C45.5686 15.4455 46.2193 14.7415 46.8806 14.0801C47.542 13.4188 48.214 12.7895 48.8966 12.1921C50.9233 10.4215 52.4806 9.53613 53.5686 9.53613C54.3153 9.53613 54.6886 9.88813 54.6886 10.5921C54.6886 11.2321 54.1446 12.6721 53.0566 14.9121C51.9686 17.1735 51.4246 18.6028 51.4246 19.2001C51.4246 19.4775 51.5206 19.6161 51.7126 19.6161C51.7766 19.6161 51.8726 19.5948 52.0006 19.5521C52.15 19.4881 52.2993 19.4561 52.4486 19.4561C52.8113 19.4561 52.9926 19.6268 52.9926 19.9681C52.9926 20.3948 52.534 20.6081 51.6166 20.6081C51.19 20.6081 50.8806 20.5121 50.6886 20.3201C50.4966 20.1068 50.4006 19.8295 50.4006 19.4881C50.4006 18.4641 50.9233 16.9068 51.9686 14.8161C53.014 12.7468 53.5366 11.4988 53.5366 11.0721C53.5366 10.8161 53.4406 10.6881 53.2486 10.6881C52.7793 10.6881 52.022 11.0828 50.9766 11.8721C49.846 12.7255 48.7153 13.7068 47.5846 14.8161C46.454 15.9255 45.3766 17.1948 44.3526 18.6241L42.1126 21.7281C41.9846 21.9201 41.814 22.0161 41.6006 22.0161Z" fill="white"/>
<path d="M29.5652 21.5363C28.3279 21.5363 27.7092 20.9496 27.7092 19.7763C27.7092 19.0083 27.8906 18.187 28.2532 17.3123C28.6372 16.4163 29.1492 15.5523 29.7892 14.7203C30.4292 13.867 31.1439 13.099 31.9332 12.4163C32.7226 11.7123 33.5332 11.1576 34.3652 10.7523C35.1972 10.3256 35.9972 10.1123 36.7652 10.1123C38.1306 10.1123 38.8132 10.7843 38.8132 12.1283C38.8132 13.003 38.5999 13.4403 38.1732 13.4403C37.7892 13.4403 37.5972 13.259 37.5972 12.8963C37.5972 12.747 37.6292 12.5976 37.6932 12.4483C37.7786 12.2776 37.8212 12.0963 37.8212 11.9043C37.8212 11.307 37.4159 11.0083 36.6052 11.0083C35.3039 11.0083 33.6719 12.0003 31.7092 13.9843C31.2399 14.475 30.7812 15.051 30.3332 15.7123C29.8852 16.3736 29.5119 17.0456 29.2132 17.7283C28.9359 18.3896 28.7972 19.019 28.7972 19.6163C28.7972 20.1923 29.1172 20.4803 29.7572 20.4803C30.3119 20.4803 30.8986 20.3096 31.5172 19.9683C32.1572 19.627 32.7119 19.275 33.1812 18.9123C34.1199 18.2083 35.0799 17.2483 36.0612 16.0323C36.2106 15.8616 36.4026 15.6376 36.6372 15.3603C36.8719 15.083 37.1386 14.7736 37.4372 14.4323C37.5439 14.3256 37.6719 14.2723 37.8212 14.2723C38.1626 14.2723 38.3332 14.443 38.3332 14.7843L37.1172 16.6083C36.3066 17.803 35.9012 18.7843 35.9012 19.5523C35.9012 20.107 36.1679 20.3843 36.7012 20.3843C37.1492 20.3843 37.6399 20.267 38.1732 20.0323C38.7066 19.7976 39.1439 19.563 39.4852 19.3283C40.1679 18.8803 40.8826 18.3256 41.6292 17.6643C42.3759 16.9816 43.0906 16.299 43.7732 15.6163C43.8586 15.531 43.9866 15.4883 44.1572 15.4883C44.4772 15.4883 44.6372 15.6163 44.6372 15.8723C44.6372 16.107 44.4879 16.3736 44.1892 16.6723C43.3359 17.5256 42.5679 18.2616 41.8852 18.8803C41.2026 19.4776 40.5519 19.9683 39.9332 20.3523C39.5279 20.587 39.0266 20.8323 38.4292 21.0883C37.8319 21.3443 37.1492 21.4723 36.3812 21.4723C35.3359 21.4723 34.8132 20.9176 34.8132 19.8083C34.8132 19.3816 34.8666 19.0296 34.9732 18.7523C33.0319 20.6083 31.2292 21.5363 29.5652 21.5363Z" fill="white"/>
<path d="M16.7881 22.0161C16.4468 22.0161 16.2761 21.8775 16.2761 21.6001C16.2761 21.4721 16.3081 21.3441 16.3721 21.2161C16.4575 21.0881 16.5215 20.9815 16.5641 20.8961L19.4761 15.0081C20.7135 12.4908 21.3321 11.0935 21.3321 10.8161C21.3321 10.5175 21.4815 10.3681 21.7801 10.3681C22.1855 10.3681 22.3881 10.5708 22.3881 10.9761C22.3881 11.1895 22.2921 11.5308 22.1001 12.0001C21.9081 12.4695 21.6628 13.0135 21.3641 13.6321C20.8521 14.7415 20.4255 15.5948 20.0841 16.1921C20.7241 15.4455 21.3748 14.7415 22.0361 14.0801C22.6975 13.4188 23.3695 12.7895 24.0521 12.1921C26.0788 10.4215 27.6361 9.53613 28.7241 9.53613C29.4708 9.53613 29.8441 9.88813 29.8441 10.5921C29.8441 11.2748 29.6201 11.6161 29.1721 11.6161C28.9588 11.6161 28.7988 11.4348 28.6921 11.0721C28.6281 10.8161 28.4788 10.6881 28.2441 10.6881C27.8815 10.6881 27.1775 11.0828 26.1321 11.8721C24.9801 12.7255 23.8175 13.7388 22.6441 14.9121C21.4921 16.0855 20.2655 17.5788 18.9641 19.3921L17.3641 21.6321C17.2788 21.7388 17.1935 21.8241 17.1081 21.8881C17.0441 21.9735 16.9375 22.0161 16.7881 22.0161Z" fill="white"/>
<path d="M0.544 22.336C0.181333 22.336 0 22.1547 0 21.792C0 21.664 0.0746667 21.376 0.224 20.928C0.650667 19.6053 1.376 17.984 2.4 16.064C3.44533 14.144 4.78933 11.9253 6.432 9.408C5.89867 9.408 5.632 9.23733 5.632 8.896C5.632 8.576 5.824 8.40533 6.208 8.384H7.104C7.72267 7.488 8.256 6.72 8.704 6.08C9.152 5.44 9.54667 4.896 9.888 4.448C10.3147 3.872 10.752 3.30667 11.2 2.752C11.648 2.176 12.0853 1.64267 12.512 1.152C12.4267 1.152 12.3413 1.16267 12.256 1.184C12.1707 1.184 12.096 1.184 12.032 1.184C11.2 1.184 10.784 0.981333 10.784 0.576C10.784 0.192 11.1147 0 11.776 0H22.496C22.8373 0 23.0187 0.170667 23.04 0.512001C23.04 0.896001 22.8693 1.088 22.528 1.088H13.92C13.3867 1.74933 12.8427 2.432 12.288 3.136C11.7547 3.81867 11.168 4.58667 10.528 5.44C9.90933 6.272 9.19467 7.25333 8.384 8.384H16.256C16.5973 8.384 16.768 8.55467 16.768 8.896C16.768 9.23733 16.5973 9.41867 16.256 9.44H7.68C5.71733 12.4267 4.192 14.9333 3.104 16.96C2.03733 18.9867 1.35467 20.6507 1.056 21.952C0.992 22.208 0.821333 22.336 0.544 22.336Z" fill="white"/>
</svg>
