<svg width="205" height="36" viewBox="0 0 205 36" fill="none" xmlns="http://www.w3.org/2000/svg">
<path d="M188.305 35.3277C187.772 35.3277 187.356 35.1891 187.057 34.9117C186.759 34.6344 186.609 34.2611 186.609 33.7917C186.609 33.1304 186.844 32.5437 187.313 32.0317C187.804 31.5411 188.476 31.0291 189.329 30.4957C189.991 30.0904 190.876 29.5357 191.985 28.8317C193.095 28.1491 194.236 27.4131 195.409 26.6237C196.049 26.1971 196.572 25.8237 196.977 25.5037C197.383 25.2051 197.788 24.8851 198.193 24.5437C198.215 24.3944 198.225 24.2664 198.225 24.1597C198.247 24.0531 198.257 23.9784 198.257 23.9357C198.257 23.1677 198.055 22.4637 197.649 21.8237C197.244 21.1624 196.689 20.7891 195.985 20.7037C194.364 22.5811 193.169 23.5197 192.401 23.5197C191.868 23.5197 191.601 23.2211 191.601 22.6237C191.601 22.1117 191.804 21.6317 192.209 21.1837C192.636 20.7357 193.159 20.3624 193.777 20.0637C194.396 19.7651 194.983 19.6051 195.537 19.5837C197.585 16.9811 198.609 14.8264 198.609 13.1197C198.609 12.2024 198.161 11.7437 197.265 11.7437C195.921 11.7437 193.959 12.9704 191.377 15.4237C191.185 15.6157 190.823 15.9784 190.289 16.5117C189.777 17.0451 189.201 17.6531 188.561 18.3357C187.921 18.9971 187.303 19.6371 186.705 20.2557C186.556 20.4051 186.396 20.5544 186.225 20.7037C186.076 20.8531 185.916 20.9277 185.745 20.9277C185.468 20.9277 185.329 20.7784 185.329 20.4797C185.329 20.2877 185.404 20.1064 185.553 19.9357C185.617 19.8504 185.852 19.6051 186.257 19.1997C186.684 18.7731 187.175 18.2824 187.729 17.7277C188.284 17.1731 188.828 16.6291 189.361 16.0957C189.895 15.5624 190.332 15.1251 190.673 14.7837C191.996 13.4611 193.223 12.4584 194.353 11.7757C195.484 11.0717 196.551 10.7197 197.553 10.7197C198.983 10.7197 199.697 11.4877 199.697 13.0237C199.697 15.0717 198.695 17.3224 196.689 19.7757C197.457 20.0744 198.065 20.5864 198.513 21.3117C198.983 22.0157 199.239 22.7517 199.281 23.5197C200.007 22.9437 200.54 22.5171 200.881 22.2397C201.223 21.9624 201.468 21.7597 201.617 21.6317C201.788 21.5037 201.937 21.3757 202.065 21.2477C202.215 21.1197 202.428 20.9277 202.705 20.6717C203.004 20.4157 203.463 20.0104 204.081 19.4557C204.209 19.3704 204.327 19.3277 204.433 19.3277C204.54 19.3277 204.647 19.3597 204.753 19.4237C204.86 19.4877 204.913 19.5837 204.913 19.7117C204.913 19.9464 204.7 20.2771 204.273 20.7037C203.804 21.1304 203.249 21.6211 202.609 22.1757C201.991 22.7304 201.372 23.2637 200.753 23.7757C200.135 24.2664 199.601 24.6717 199.153 24.9917C198.833 26.6984 197.873 28.4691 196.273 30.3037C195.804 30.8371 195.281 31.3491 194.705 31.8397C194.151 32.3517 193.564 32.8424 192.945 33.3117C192.22 33.8237 191.431 34.2824 190.577 34.6877C189.745 35.1144 188.988 35.3277 188.305 35.3277ZM192.529 22.6237C192.956 22.3891 193.393 22.0691 193.841 21.6637C194.311 21.2584 194.641 20.9064 194.833 20.6077C194.129 20.8637 193.564 21.1837 193.137 21.5677C192.711 21.9304 192.508 22.2824 192.529 22.6237ZM188.657 34.3037C189.617 34.3037 190.876 33.6957 192.433 32.4797C193.564 31.5837 194.588 30.6237 195.505 29.5997C196.615 28.3197 197.372 27.1571 197.777 26.1117C197.628 26.2184 197.447 26.3464 197.233 26.4957C197.02 26.6664 196.711 26.9011 196.305 27.1997C195.644 27.6691 195.068 28.0744 194.577 28.4157C194.087 28.7571 193.607 29.0664 193.137 29.3437C192.689 29.6424 192.199 29.9517 191.665 30.2717C191.153 30.5917 190.545 30.9651 189.841 31.3917C189.031 31.8611 188.476 32.2771 188.177 32.6397C187.879 33.0237 187.729 33.3437 187.729 33.5997C187.729 34.0691 188.039 34.3037 188.657 34.3037Z" fill="white"/>
<path d="M176.927 25.632C176.031 25.632 175.327 25.3226 174.815 24.704C174.303 24.0853 174.047 23.328 174.047 22.432C174.047 20.896 174.559 19.3173 175.583 17.696C175.861 17.248 176.181 16.8106 176.543 16.384C176.906 15.936 177.301 15.5093 177.727 15.104C178.367 14.4853 179.039 13.9733 179.743 13.568C180.447 13.1626 181.13 12.96 181.791 12.96C182.879 12.96 183.423 13.472 183.423 14.496C183.423 15.776 182.677 16.9386 181.183 17.984C179.797 18.9226 178.431 19.392 177.087 19.392C176.853 19.392 176.639 19.3813 176.447 19.36C176.277 19.3173 176.117 19.2746 175.967 19.232C175.754 19.6373 175.562 20.16 175.391 20.8C175.221 21.44 175.135 21.9946 175.135 22.464C175.135 23.872 175.754 24.576 176.991 24.576C177.994 24.576 178.943 24.4053 179.839 24.064C180.735 23.7013 181.802 23.0293 183.039 22.048C183.807 21.4506 184.383 20.9706 184.767 20.608C185.151 20.2453 185.567 19.8613 186.015 19.456C186.143 19.3706 186.261 19.328 186.367 19.328C186.474 19.328 186.581 19.36 186.687 19.424C186.794 19.488 186.847 19.584 186.847 19.712C186.847 19.9466 186.634 20.2773 186.207 20.704C185.845 21.0453 185.461 21.408 185.055 21.792C184.65 22.1546 184.01 22.6666 183.135 23.328C182.197 24.0533 181.173 24.6186 180.063 25.024C178.954 25.4293 177.909 25.632 176.927 25.632ZM176.895 18.368C177.578 18.368 178.229 18.2613 178.847 18.048C179.466 17.8346 180.053 17.5253 180.607 17.12C181.845 16.2026 182.463 15.3386 182.463 14.528C182.463 14.1653 182.239 13.984 181.791 13.984C180.938 13.984 179.946 14.5066 178.815 15.552C178.261 16.064 177.802 16.5333 177.439 16.96C177.098 17.3653 176.778 17.8133 176.479 18.304C176.607 18.3466 176.746 18.368 176.895 18.368Z" fill="white"/>
<path d="M169.434 25.92C168.453 25.92 167.695 25.6213 167.162 25.024C166.65 24.4053 166.394 23.5947 166.394 22.592C166.394 21.8667 166.522 20.992 166.778 19.968C167.226 18.24 167.983 16.2347 169.05 13.952C169.882 12.224 170.778 10.528 171.738 8.864C172.698 7.17867 173.754 5.52533 174.906 3.904C176.741 1.30133 178.021 0 178.746 0C179.215 0 179.45 0.128 179.45 0.384001C179.45 0.746668 178.853 1.65333 177.658 3.104L175.418 5.824C173.477 8.17067 171.887 10.5707 170.65 13.024C169.434 15.4773 168.485 17.9307 167.802 20.384C167.61 21.088 167.514 21.7493 167.514 22.368C167.514 23.9893 168.175 24.8 169.498 24.8C169.967 24.8 170.447 24.6613 170.938 24.384C171.429 24.128 171.695 24 171.738 24C171.994 24 172.122 24.1813 172.122 24.544C172.122 24.864 172.005 25.1093 171.77 25.28C171.045 25.7067 170.266 25.92 169.434 25.92Z" fill="white"/>
<path d="M152.791 25.3756C151.553 25.3756 150.935 24.789 150.935 23.6156C150.935 22.8476 151.116 22.0263 151.479 21.1516C151.863 20.2556 152.375 19.3916 153.015 18.5596C153.655 17.7063 154.369 16.9383 155.159 16.2556C155.948 15.5516 156.759 14.997 157.591 14.5916C158.423 14.165 159.223 13.9516 159.991 13.9516C161.356 13.9516 162.039 14.6236 162.039 15.9676C162.039 16.8423 161.825 17.2796 161.399 17.2796C161.015 17.2796 160.823 17.0983 160.823 16.7356C160.823 16.5863 160.855 16.437 160.919 16.2876C161.004 16.117 161.047 15.9356 161.047 15.7436C161.047 15.1463 160.641 14.8476 159.831 14.8476C158.529 14.8476 156.897 15.8396 154.935 17.8236C154.465 18.3143 154.007 18.8903 153.559 19.5516C153.111 20.213 152.737 20.885 152.439 21.5676C152.161 22.229 152.023 22.8583 152.023 23.4556C152.023 24.0316 152.343 24.3196 152.983 24.3196C153.537 24.3196 154.124 24.149 154.743 23.8076C155.383 23.4663 155.937 23.1143 156.407 22.7516C157.345 22.0476 158.305 21.0876 159.287 19.8716C159.436 19.701 159.628 19.477 159.863 19.1996C160.097 18.9223 160.364 18.613 160.663 18.2716C160.769 18.165 160.897 18.1116 161.047 18.1116C161.388 18.1116 161.559 18.2823 161.559 18.6236L160.343 20.4476C159.532 21.6423 159.127 22.6236 159.127 23.3916C159.127 23.9463 159.393 24.2236 159.927 24.2236C160.375 24.2236 160.865 24.1063 161.399 23.8716C161.932 23.637 162.369 23.4023 162.711 23.1676C163.393 22.7196 164.108 22.165 164.855 21.5036C165.601 20.821 166.316 20.1383 166.999 19.4556C167.084 19.3703 167.212 19.3276 167.383 19.3276C167.703 19.3276 167.863 19.4556 167.863 19.7116C167.863 19.9463 167.713 20.213 167.415 20.5116C166.561 21.365 165.793 22.101 165.111 22.7196C164.428 23.317 163.777 23.8076 163.159 24.1916C162.753 24.4263 162.252 24.6716 161.655 24.9276C161.057 25.1836 160.375 25.3116 159.607 25.3116C158.561 25.3116 158.039 24.757 158.039 23.6476C158.039 23.221 158.092 22.869 158.199 22.5916C156.257 24.4476 154.455 25.3756 152.791 25.3756ZM159.799 12.1596C159.713 12.1596 159.617 12.117 159.511 12.0316C159.425 11.925 159.383 11.829 159.383 11.7436C159.383 11.637 159.425 11.541 159.511 11.4556C159.681 11.285 159.937 11.029 160.279 10.6876C160.62 10.325 160.983 9.95163 161.367 9.56763C161.751 9.1623 162.081 8.82097 162.359 8.54363C162.444 8.4583 162.54 8.38363 162.647 8.31963C162.775 8.25563 162.881 8.22363 162.967 8.22363C163.073 8.22363 163.169 8.27697 163.255 8.38363C163.361 8.46897 163.425 8.56497 163.447 8.67163V8.73563C163.447 8.86363 163.351 9.02363 163.159 9.21563C162.967 9.40763 162.572 9.78097 161.975 10.3356C161.377 10.8903 160.737 11.4663 160.055 12.0636C159.969 12.1276 159.884 12.1596 159.799 12.1596Z" fill="white"/>
<path d="M136.524 35.3277C135.991 35.3277 135.575 35.1891 135.276 34.9117C134.977 34.6344 134.828 34.2611 134.828 33.7917C134.828 33.1304 135.063 32.5437 135.532 32.0317C136.023 31.5411 136.695 31.0291 137.548 30.4957C138.209 30.0904 139.095 29.5357 140.204 28.8317C141.313 28.1491 142.455 27.4131 143.628 26.6237C144.268 26.1971 144.791 25.8237 145.196 25.5037C145.601 25.2051 146.007 24.8851 146.412 24.5437C146.433 24.3944 146.444 24.2664 146.444 24.1597C146.465 24.0531 146.476 23.9784 146.476 23.9357C146.476 23.1677 146.273 22.4637 145.868 21.8237C145.463 21.1624 144.908 20.7891 144.204 20.7037C142.583 22.5811 141.388 23.5197 140.62 23.5197C140.087 23.5197 139.82 23.2211 139.82 22.6237C139.82 22.1117 140.023 21.6317 140.428 21.1837C140.855 20.7357 141.377 20.3624 141.996 20.0637C142.615 19.7651 143.201 19.6051 143.756 19.5837C145.804 16.9811 146.828 14.8264 146.828 13.1197C146.828 12.2024 146.38 11.7437 145.484 11.7437C144.14 11.7437 142.177 12.9704 139.596 15.4237C139.404 15.6157 139.041 15.9784 138.508 16.5117C137.996 17.0451 137.42 17.6531 136.78 18.3357C136.14 18.9971 135.521 19.6371 134.924 20.2557C134.775 20.4051 134.615 20.5544 134.444 20.7037C134.295 20.8531 134.135 20.9277 133.964 20.9277C133.687 20.9277 133.548 20.7784 133.548 20.4797C133.548 20.2877 133.623 20.1064 133.772 19.9357C133.836 19.8504 134.071 19.6051 134.476 19.1997C134.903 18.7731 135.393 18.2824 135.948 17.7277C136.503 17.1731 137.047 16.6291 137.58 16.0957C138.113 15.5624 138.551 15.1251 138.892 14.7837C140.215 13.4611 141.441 12.4584 142.572 11.7757C143.703 11.0717 144.769 10.7197 145.772 10.7197C147.201 10.7197 147.916 11.4877 147.916 13.0237C147.916 15.0717 146.913 17.3224 144.908 19.7757C145.676 20.0744 146.284 20.5864 146.732 21.3117C147.201 22.0157 147.457 22.7517 147.5 23.5197C148.225 22.9437 148.759 22.5171 149.1 22.2397C149.441 21.9624 149.687 21.7597 149.836 21.6317C150.007 21.5037 150.156 21.3757 150.284 21.2477C150.433 21.1197 150.647 20.9277 150.924 20.6717C151.223 20.4157 151.681 20.0104 152.3 19.4557C152.428 19.3704 152.545 19.3277 152.652 19.3277C152.759 19.3277 152.865 19.3597 152.972 19.4237C153.079 19.4877 153.132 19.5837 153.132 19.7117C153.132 19.9464 152.919 20.2771 152.492 20.7037C152.023 21.1304 151.468 21.6211 150.828 22.1757C150.209 22.7304 149.591 23.2637 148.972 23.7757C148.353 24.2664 147.82 24.6717 147.372 24.9917C147.052 26.6984 146.092 28.4691 144.492 30.3037C144.023 30.8371 143.5 31.3491 142.924 31.8397C142.369 32.3517 141.783 32.8424 141.164 33.3117C140.439 33.8237 139.649 34.2824 138.796 34.6877C137.964 35.1144 137.207 35.3277 136.524 35.3277ZM140.748 22.6237C141.175 22.3891 141.612 22.0691 142.06 21.6637C142.529 21.2584 142.86 20.9064 143.052 20.6077C142.348 20.8637 141.783 21.1837 141.356 21.5677C140.929 21.9304 140.727 22.2824 140.748 22.6237ZM136.876 34.3037C137.836 34.3037 139.095 33.6957 140.652 32.4797C141.783 31.5837 142.807 30.6237 143.724 29.5997C144.833 28.3197 145.591 27.1571 145.996 26.1117C145.847 26.2184 145.665 26.3464 145.452 26.4957C145.239 26.6664 144.929 26.9011 144.524 27.1997C143.863 27.6691 143.287 28.0744 142.796 28.4157C142.305 28.7571 141.825 29.0664 141.356 29.3437C140.908 29.6424 140.417 29.9517 139.884 30.2717C139.372 30.5917 138.764 30.9651 138.06 31.3917C137.249 31.8611 136.695 32.2771 136.396 32.6397C136.097 33.0237 135.948 33.3437 135.948 33.5997C135.948 34.0691 136.257 34.3037 136.876 34.3037Z" fill="white"/>
<path d="M119.357 25.856C119.016 25.856 118.845 25.7173 118.845 25.44C118.845 25.3333 118.888 25.2053 118.973 25.056C119.059 24.8853 119.133 24.7466 119.197 24.64L122.077 18.848C123.315 16.3306 123.933 14.9333 123.933 14.656C123.933 14.3573 124.083 14.208 124.381 14.208C124.787 14.208 124.989 14.4213 124.989 14.848C124.989 14.9973 124.893 15.3173 124.701 15.808C124.509 16.2986 124.264 16.8533 123.965 17.472C123.453 18.5813 123.027 19.4346 122.685 20.032C123.325 19.2853 123.976 18.5813 124.637 17.92C125.299 17.2586 125.971 16.6293 126.653 16.032C128.68 14.2613 130.237 13.376 131.325 13.376C132.072 13.376 132.445 13.728 132.445 14.432C132.445 15.072 131.901 16.512 130.813 18.752C129.725 21.0133 129.181 22.4426 129.181 23.04C129.181 23.3173 129.277 23.456 129.469 23.456C129.533 23.456 129.629 23.4346 129.757 23.392C129.907 23.328 130.056 23.296 130.205 23.296C130.568 23.296 130.749 23.4666 130.749 23.808C130.749 24.2346 130.291 24.448 129.373 24.448C128.947 24.448 128.637 24.352 128.445 24.16C128.253 23.9466 128.157 23.6693 128.157 23.328C128.157 22.304 128.68 20.7466 129.725 18.656C130.771 16.5866 131.293 15.3386 131.293 14.912C131.293 14.656 131.197 14.528 131.005 14.528C130.536 14.528 129.779 14.9226 128.733 15.712C127.603 16.5653 126.472 17.5466 125.341 18.656C124.211 19.7653 123.133 21.0346 122.109 22.464L119.869 25.568C119.741 25.76 119.571 25.856 119.357 25.856Z" fill="white"/>
<path d="M112.413 24.8954C110.685 24.8954 109.821 23.9247 109.821 21.9834C109.821 21.0874 110.034 20.1487 110.461 19.1674C110.888 18.1861 111.453 17.2794 112.157 16.4474C112.861 15.594 113.64 14.9007 114.493 14.3674C115.368 13.8341 116.253 13.5674 117.149 13.5674C117.938 13.5674 118.514 13.866 118.877 14.4634C119.24 15.0607 119.421 15.722 119.421 16.4474C119.421 17.4074 119.229 18.3887 118.845 19.3914C118.461 20.3727 117.938 21.2794 117.277 22.1114C116.616 22.9434 115.869 23.6154 115.037 24.1274C114.205 24.6394 113.33 24.8954 112.413 24.8954ZM112.381 23.8714C112.509 23.8714 112.584 23.8607 112.605 23.8394C113.437 23.7327 114.205 23.4341 114.909 22.9434C115.613 22.4527 116.221 21.8447 116.733 21.1194C117.266 20.3727 117.672 19.5727 117.949 18.7194C118.226 17.8661 118.365 17.0234 118.365 16.1914C118.365 15.7007 118.226 15.3167 117.949 15.0394C117.672 14.7621 117.32 14.6234 116.893 14.6234C116.274 14.6234 115.613 14.8794 114.909 15.3914C114.226 15.9034 113.576 16.5541 112.957 17.3434C112.36 18.1327 111.869 18.9647 111.485 19.8394C111.101 20.6927 110.909 21.4607 110.909 22.1434C110.909 23.2954 111.4 23.8714 112.381 23.8714Z" fill="white"/>
<path d="M91.3615 26.4318C89.6122 26.4318 88.0655 26.0798 86.7215 25.3758C85.3775 24.6718 84.3215 23.6798 83.5535 22.3998C82.7855 21.0984 82.4015 19.5944 82.4015 17.8878C82.4015 16.0744 82.7642 14.4211 83.4895 12.9278C84.2148 11.4344 85.2602 10.0691 86.6255 8.83176C90.5082 5.31176 95.1268 3.55176 100.481 3.55176C101.612 3.55176 102.689 3.75442 103.713 4.15976C104.759 4.54376 105.612 5.11976 106.273 5.88776C106.935 6.63443 107.265 7.54109 107.265 8.60776C107.265 9.48243 106.999 10.2291 106.465 10.8478C106.337 11.0184 106.124 11.2424 105.825 11.5198C105.548 11.7758 105.303 11.9038 105.089 11.9038C104.919 11.9038 104.748 11.8398 104.577 11.7118C104.407 11.5624 104.321 11.4131 104.321 11.2638C104.321 11.1571 104.396 11.0398 104.545 10.9118C104.695 10.7624 104.919 10.5491 105.217 10.2718C105.793 9.69576 106.081 9.04509 106.081 8.31976C106.081 7.44509 105.772 6.71976 105.153 6.14376C104.556 5.56776 103.788 5.14109 102.849 4.86376C101.911 4.56509 100.919 4.41576 99.8735 4.41576C97.5268 4.41576 95.2335 4.91709 92.9935 5.91976C90.7748 6.90109 88.8122 8.24509 87.1055 9.95176C85.9748 11.0824 85.1002 12.3198 84.4815 13.6638C83.8842 14.9864 83.5855 16.4691 83.5855 18.1118C83.5855 19.4771 83.8308 20.6184 84.3215 21.5358C84.8335 22.4531 85.4841 23.1998 86.2735 23.7758C87.0842 24.3518 87.9695 24.7784 88.9295 25.0558C89.8895 25.3118 90.8068 25.4398 91.6815 25.4398C92.7055 25.4398 93.7935 25.3011 94.9455 25.0238C96.1188 24.7464 97.2602 24.3731 98.3695 23.9038C99.5002 23.4131 100.513 22.8798 101.409 22.3038C101.793 22.0478 102.103 21.8238 102.337 21.6318C102.593 21.4398 102.775 21.2904 102.881 21.1838L103.841 19.5518C104.097 19.1251 104.407 18.5918 104.769 17.9518C105.132 17.3118 105.548 16.5651 106.017 15.7118C105.356 15.7118 104.524 15.8078 103.521 15.9998C102.519 16.1918 101.473 16.4371 100.385 16.7358C99.7241 16.9064 99.0628 17.1091 98.4015 17.3438C97.7615 17.5571 97.3562 17.6638 97.1855 17.6638C96.8228 17.6638 96.6415 17.4718 96.6415 17.0878C96.6415 16.9811 96.6735 16.8958 96.7375 16.8318C96.8015 16.7464 96.9402 16.6504 97.1535 16.5438C97.6442 16.2664 98.2735 16.0104 99.0415 15.7758C99.8095 15.5198 100.663 15.3064 101.601 15.1358C102.455 14.9651 103.297 14.8478 104.129 14.7838C104.961 14.7198 105.772 14.6984 106.561 14.7198L106.657 14.5278C106.743 14.3144 106.892 14.2078 107.105 14.2078C107.425 14.2078 107.628 14.3784 107.713 14.7198C108.247 14.7411 108.855 14.8158 109.537 14.9438C109.879 15.0078 110.049 15.1998 110.049 15.5198C110.049 15.8398 109.889 15.9998 109.569 15.9998C109.42 15.9998 109.121 15.9571 108.673 15.8718C108.247 15.7864 107.777 15.7438 107.265 15.7438C106.796 16.6611 105.868 18.2931 104.481 20.6398C104.204 21.1091 103.969 21.5144 103.777 21.8558C103.585 22.1971 103.436 22.4851 103.329 22.7198C102.945 23.4664 102.657 24.1918 102.465 24.8958C102.401 25.1304 102.273 25.2478 102.081 25.2478C101.655 25.2478 101.441 25.0558 101.441 24.6718C101.441 24.4158 101.591 23.8931 101.889 23.1038C100.929 23.7224 99.8308 24.2878 98.5935 24.7998C97.3775 25.2904 96.1402 25.6851 94.8815 25.9838C93.6228 26.2824 92.4495 26.4318 91.3615 26.4318Z" fill="white"/>
<path d="M64.4755 24.8954C62.7475 24.8954 61.8835 23.9247 61.8835 21.9834C61.8835 21.0874 62.0969 20.1487 62.5235 19.1674C62.9502 18.1861 63.5155 17.2794 64.2195 16.4474C64.9235 15.594 65.7022 14.9007 66.5555 14.3674C67.4302 13.8341 68.3155 13.5674 69.2115 13.5674C70.0009 13.5674 70.5769 13.866 70.9395 14.4634C71.3022 15.0607 71.4836 15.722 71.4836 16.4474C71.4836 17.4074 71.2915 18.3887 70.9075 19.3914C70.5235 20.3727 70.0009 21.2794 69.3395 22.1114C68.6782 22.9434 67.9315 23.6154 67.0995 24.1274C66.2675 24.6394 65.3929 24.8954 64.4755 24.8954ZM64.4436 23.8714C64.5716 23.8714 64.6462 23.8607 64.6675 23.8394C65.4995 23.7327 66.2675 23.4341 66.9715 22.9434C67.6755 22.4527 68.2835 21.8447 68.7955 21.1194C69.3289 20.3727 69.7342 19.5727 70.0116 18.7194C70.2889 17.8661 70.4276 17.0234 70.4276 16.1914C70.4276 15.7007 70.2889 15.3167 70.0116 15.0394C69.7342 14.7621 69.3822 14.6234 68.9556 14.6234C68.3369 14.6234 67.6755 14.8794 66.9715 15.3914C66.2889 15.9034 65.6382 16.5541 65.0195 17.3434C64.4222 18.1327 63.9315 18.9647 63.5475 19.8394C63.1635 20.6927 62.9715 21.4607 62.9715 22.1434C62.9715 23.2954 63.4622 23.8714 64.4436 23.8714Z" fill="white"/>
<path d="M60.9511 12.4475C60.5884 12.4475 60.4071 12.2662 60.4071 11.9035C60.4071 11.7968 60.4817 11.6048 60.6311 11.3275C60.7804 11.0288 60.9511 10.7302 61.1431 10.4315C61.3351 10.1328 61.4844 9.93017 61.5911 9.82351C61.9537 9.41817 62.2311 9.16217 62.4231 9.05551C62.6364 8.94884 62.8284 8.89551 62.9991 8.89551C63.4471 8.89551 63.6711 9.09817 63.6711 9.50351C63.6711 9.65284 63.5751 9.83417 63.3831 10.0475C63.2124 10.2395 63.0097 10.4208 62.7751 10.5915C62.4337 10.8048 62.2204 10.9755 62.1351 11.1035L61.4311 12.0955C61.4097 12.1808 61.3564 12.2662 61.2711 12.3515C61.2071 12.4155 61.1004 12.4475 60.9511 12.4475ZM55.5111 25.4075C54.9137 25.4075 54.4764 25.2902 54.1991 25.0555C53.9431 24.8208 53.8151 24.4688 53.8151 23.9995C53.8151 23.5515 53.9537 22.9435 54.2311 22.1755C54.5084 21.3862 54.8604 20.5435 55.2871 19.6475C55.7351 18.7515 56.2044 17.8982 56.6951 17.0875C57.1857 16.2768 57.6551 15.6155 58.1031 15.1035C58.5724 14.5702 58.9457 14.3035 59.2231 14.3035C59.6071 14.3035 59.7991 14.4742 59.7991 14.8155C59.7991 15.0288 59.6177 15.4342 59.2551 16.0315C58.8924 16.6288 58.4977 17.2475 58.0711 17.8875C57.9004 18.1222 57.6657 18.4422 57.3671 18.8475C57.0684 19.2528 56.7804 19.6368 56.5031 19.9995C56.2257 20.3408 56.0444 20.5755 55.9591 20.7035C55.7457 21.0235 55.5217 21.5462 55.2871 22.2715C55.0311 22.9968 54.9031 23.5515 54.9031 23.9355C54.9031 24.1062 54.9351 24.2342 54.9991 24.3195C55.0844 24.4048 55.2657 24.4475 55.5431 24.4475C56.0764 24.4475 56.6737 24.2768 57.3351 23.9355C57.9964 23.5942 58.6684 23.1675 59.3511 22.6555C60.0337 22.1222 60.6737 21.5782 61.2711 21.0235C61.8897 20.4688 62.4124 19.9888 62.8391 19.5835C62.9244 19.4982 63.0524 19.4555 63.2231 19.4555C63.5431 19.4555 63.7031 19.5835 63.7031 19.8395C63.7031 20.0742 63.5537 20.3408 63.2551 20.6395C62.6791 21.2155 62.1457 21.7275 61.6551 22.1755C61.1644 22.6235 60.6951 23.0182 60.2471 23.3595C59.5431 23.8715 58.7644 24.3408 57.9111 24.7675C57.0577 25.1942 56.2577 25.4075 55.5111 25.4075Z" fill="white"/>
<path d="M42.1165 35.584C41.2205 35.584 40.5485 35.2427 40.1005 34.56C39.6525 33.8987 39.4285 33.1414 39.4285 32.288C39.4285 31.648 39.4605 31.0187 39.5245 30.4C39.5671 29.8027 39.6418 29.2054 39.7485 28.608C39.8125 28.2667 39.9618 28.096 40.1965 28.096C40.6231 28.096 40.8365 28.32 40.8365 28.768C40.8365 28.896 40.8045 29.088 40.7405 29.344C40.6765 29.5574 40.6445 29.7174 40.6445 29.824C40.6018 30.1653 40.5698 30.5173 40.5485 30.88C40.5271 31.264 40.5165 31.648 40.5165 32.032C40.5165 33.7174 41.1351 34.56 42.3725 34.56C42.7351 34.56 43.1511 34.3147 43.6205 33.824C44.1111 33.3333 44.5485 32.8 44.9325 32.224C45.8285 30.88 46.7778 28.7573 47.7805 25.856L48.8365 22.816C47.1085 24.8853 45.5511 25.92 44.1645 25.92C43.3111 25.92 42.6498 25.6 42.1805 24.96C41.7111 24.32 41.4765 23.5414 41.4765 22.624C41.4765 20.7894 42.2871 18.7627 43.9085 16.544C45.6791 14.176 47.4178 12.992 49.1245 12.992C50.4685 12.992 51.3538 13.7814 51.7805 15.36C52.5911 13.3973 53.3378 12.416 54.0205 12.416C54.2765 12.416 54.4045 12.6293 54.4045 13.056C54.4045 13.9093 54.0098 15.0507 53.2205 16.48C53.0498 16.7573 52.8365 17.0987 52.5805 17.504C52.3458 17.9093 52.0791 18.3893 51.7805 18.944L50.6925 21.6C50.4791 22.112 50.2125 22.7627 49.8925 23.552C49.5725 24.32 49.2098 25.2267 48.8045 26.272C48.3351 27.552 47.8978 28.6507 47.4925 29.568C47.1085 30.5067 46.7565 31.2747 46.4365 31.872C45.0498 34.3467 43.6525 35.584 42.2445 35.584H42.1165ZM44.1645 24.8C45.5085 24.8 47.4925 22.9973 50.1165 19.392L51.0445 17.024C50.8951 16.9173 50.7885 16.6933 50.7245 16.352C50.5325 15.4347 50.3085 14.8267 50.0525 14.528C49.7965 14.2293 49.4551 14.08 49.0285 14.08C48.5378 14.08 47.9725 14.304 47.3325 14.752C46.6925 15.2 46.0845 15.7547 45.5085 16.416C44.9325 17.056 44.4738 17.6853 44.1325 18.304C43.1085 20.0533 42.5965 21.5573 42.5965 22.816C42.5965 24.1387 43.1191 24.8 44.1645 24.8Z" fill="white"/>
<path d="M30.1072 25.856C29.7659 25.856 29.5952 25.7173 29.5952 25.44C29.5952 25.312 29.6272 25.184 29.6912 25.056C29.7765 24.928 29.8405 24.8213 29.8832 24.736L32.7952 18.848C34.0325 16.3306 34.6512 14.9333 34.6512 14.656C34.6512 14.3573 34.8005 14.208 35.0992 14.208C35.5045 14.208 35.7072 14.4106 35.7072 14.816C35.7072 15.0293 35.6112 15.3706 35.4192 15.84C35.2272 16.3093 34.9819 16.8533 34.6832 17.472C34.1712 18.5813 33.7445 19.4346 33.4032 20.032C34.0432 19.2853 34.6939 18.5813 35.3552 17.92C36.0165 17.2586 36.6885 16.6293 37.3712 16.032C39.3979 14.2613 40.9552 13.376 42.0432 13.376C42.7899 13.376 43.1632 13.728 43.1632 14.432C43.1632 15.1146 42.9392 15.456 42.4912 15.456C42.2779 15.456 42.1179 15.2746 42.0112 14.912C41.9472 14.656 41.7979 14.528 41.5632 14.528C41.2005 14.528 40.4965 14.9226 39.4512 15.712C38.2992 16.5653 37.1365 17.5786 35.9632 18.752C34.8112 19.9253 33.5846 21.4186 32.2832 23.232L30.6832 25.472C30.5979 25.5786 30.5125 25.664 30.4272 25.728C30.3632 25.8133 30.2565 25.856 30.1072 25.856Z" fill="white"/>
<path d="M23.1772 25.632C22.2812 25.632 21.5772 25.3226 21.0652 24.704C20.5532 24.0853 20.2972 23.328 20.2972 22.432C20.2972 20.896 20.8092 19.3173 21.8332 17.696C22.1106 17.248 22.4306 16.8106 22.7932 16.384C23.1559 15.936 23.5506 15.5093 23.9772 15.104C24.6172 14.4853 25.2892 13.9733 25.9932 13.568C26.6972 13.1626 27.3799 12.96 28.0412 12.96C29.1292 12.96 29.6732 13.472 29.6732 14.496C29.6732 15.776 28.9266 16.9386 27.4332 17.984C26.0466 18.9226 24.6812 19.392 23.3372 19.392C23.1026 19.392 22.8892 19.3813 22.6972 19.36C22.5266 19.3173 22.3666 19.2746 22.2172 19.232C22.0039 19.6373 21.8119 20.16 21.6412 20.8C21.4706 21.44 21.3852 21.9946 21.3852 22.464C21.3852 23.872 22.0039 24.576 23.2412 24.576C24.2439 24.576 25.1932 24.4053 26.0892 24.064C26.9852 23.7013 28.0519 23.0293 29.2892 22.048C30.0572 21.4506 30.6332 20.9706 31.0172 20.608C31.4012 20.2453 31.8172 19.8613 32.2652 19.456C32.3932 19.3706 32.5106 19.328 32.6172 19.328C32.7239 19.328 32.8306 19.36 32.9372 19.424C33.0439 19.488 33.0972 19.584 33.0972 19.712C33.0972 19.9466 32.8839 20.2773 32.4572 20.704C32.0946 21.0453 31.7106 21.408 31.3052 21.792C30.8999 22.1546 30.2599 22.6666 29.3852 23.328C28.4466 24.0533 27.4226 24.6186 26.3132 25.024C25.2039 25.4293 24.1586 25.632 23.1772 25.632ZM23.1452 18.368C23.8279 18.368 24.4786 18.2613 25.0972 18.048C25.7159 17.8346 26.3026 17.5253 26.8572 17.12C28.0946 16.2026 28.7132 15.3386 28.7132 14.528C28.7132 14.1653 28.4892 13.984 28.0412 13.984C27.1879 13.984 26.1959 14.5066 25.0652 15.552C24.5106 16.064 24.0519 16.5333 23.6892 16.96C23.3479 17.3653 23.0279 17.8133 22.7292 18.304C22.8572 18.3466 22.9959 18.368 23.1452 18.368Z" fill="white"/>
<path d="M7.904 26.4313C6.53867 26.4313 5.248 26.2073 4.032 25.7593C2.83733 25.3113 1.86667 24.6713 1.12 23.8393C0.373333 23.0073 0 22.026 0 20.8953C0 20.5327 0.064 20.1487 0.192 19.7433C0.362667 19.1887 0.554667 18.9113 0.768 18.9113C1.088 18.9113 1.248 19.0927 1.248 19.4553C1.248 19.6047 1.20533 19.8073 1.12 20.0633C1.03467 20.3193 0.992 20.5647 0.992 20.7993C0.992 21.738 1.312 22.5593 1.952 23.2633C2.592 23.946 3.41333 24.4687 4.416 24.8313C5.44 25.194 6.50667 25.3753 7.616 25.3753C10.0267 25.3753 12.0747 24.7993 13.76 23.6473C14.6347 23.05 15.36 22.3353 15.936 21.5033C16.512 20.65 16.8 19.7433 16.8 18.7833C16.8 17.9087 16.576 17.1833 16.128 16.6073C15.7013 16.0313 15.104 15.5407 14.336 15.1353C13.568 14.7087 12.6827 14.3247 11.68 13.9833C8.82133 12.9807 7.392 11.7647 7.392 10.3353C7.392 9.56732 7.68 8.83132 8.256 8.12732C8.832 7.42332 9.536 6.80465 10.368 6.27132C11.2 5.71665 12 5.30065 12.768 5.02332C13.8987 4.59665 14.944 4.30865 15.904 4.15932C16.8853 3.98865 17.792 3.90332 18.624 3.90332C19.7547 3.90332 20.5547 4.16999 21.024 4.70332C21.4933 5.21532 21.728 5.85532 21.728 6.62332C21.728 7.22065 21.5787 7.79665 21.28 8.35132C21.0027 8.90599 20.6187 9.38599 20.128 9.79132C19.5733 10.2607 19.1253 10.4953 18.784 10.4953C18.4213 10.4953 18.24 10.3247 18.24 9.98332C18.24 9.79132 18.336 9.65265 18.528 9.56732C19.9573 8.84199 20.672 7.84999 20.672 6.59132C20.672 6.03665 20.512 5.63132 20.192 5.37532C19.8933 5.09799 19.3707 4.95932 18.624 4.95932C17.9413 4.95932 17.1733 5.03399 16.32 5.18332C15.488 5.33265 14.6347 5.55665 13.76 5.85532C12.992 6.13265 12.2133 6.50599 11.424 6.97532C10.6347 7.44465 9.97333 7.95665 9.44 8.51132C8.928 9.06599 8.672 9.62065 8.672 10.1753C8.672 11.3487 9.80267 12.2873 12.064 12.9913C15.968 14.2287 17.92 16.1273 17.92 18.6873C17.92 19.4553 17.7387 20.2127 17.376 20.9593C17.0347 21.706 16.576 22.3887 16 23.0073C15.4453 23.626 14.848 24.1593 14.208 24.6073C13.2907 25.2473 12.288 25.706 11.2 25.9833C10.1333 26.282 9.03467 26.4313 7.904 26.4313Z" fill="white"/>
</svg>
